<svg width="64" height="64" viewBox="0 0 64 64" fill="none" xmlns="http://www.w3.org/2000/svg">
<path d="M62.3 47.1C62.2 22.7 41.5 2.1 17.1 2L2.30005 62L62.3 47.1Z" fill="#F6DA77"/>
<path d="M54.5 49L56.6 48.6C55.6 29.6 42 9.7 15.6 7.7L15.3 9.7C35.5 12.3 52 28.7 54.5 49Z" fill="#860D16"/>
<path d="M56.5 48.6L62.2 47.2C62.3 22.8 41.5 2 16.9 2L15.5 7.7C39 9.9 54.3 25.3 56.5 48.6Z" fill="#C98E52"/>
<path d="M13.5 41.7C11.8 41.7 10.3 41.1 9.09998 39.9C8.59998 39.4 8.59998 38.6 9.09998 38.2C9.59998 37.7 10.4 37.7 10.8 38.2C12.2 39.6 14.7 39.6 16.1 38.2C16.8 37.5 17.2 36.6 17.2 35.6C17.2 34.6 16.8 33.7 16.1 33C15.6 32.5 15.6 31.7 16.1 31.3C16.6 30.8 17.4 30.8 17.8 31.3C19 32.5 19.6 34 19.6 35.7C19.6 37.4 19 38.9 17.8 40.1C16.7 41 15.1 41.7 13.5 41.7" fill="#83BF4F"/>
<path d="M38.6 21.9V22.4C38.5 22.7 38.4 22.9 38.1 23.1C37.8 23.3 37.5 23.3 37.3 23.2C36.5 23 35.7 23.2 35 23.6C34.3 24 33.8 24.7 33.6 25.5C33.2 27.1 34.3 28.8 35.9 29.2C36.5 29.3 36.9 30 36.7 30.5C36.6 31.1 36 31.5 35.4 31.3C33.4 30.8 31.9 29.3 31.4 27.3C31.2 26.5 31.2 25.7 31.4 25C31.7 23.6 32.6 22.5 33.8 21.7C35 20.9 36.4 20.7 37.8 21C38.1 21.2 38.5 21.5 38.6 21.9" fill="#83BF4F"/>
<path d="M43.8999 50.9H43.3999C43.0999 50.8 42.8999 50.7 42.7999 50.4C42.6999 50.2 42.5999 49.9 42.6999 49.6C42.8999 48.9 42.7999 48.1 42.3999 47.4C41.9999 46.7 41.3999 46.2 40.5999 46C39.0999 45.6 37.3999 46.6 36.9999 48C36.8999 48.5 36.1999 48.9 35.6999 48.7C35.0999 48.5 34.7999 48 34.9999 47.4C35.4999 45.6 36.9999 44.1 38.8999 43.8C39.5999 43.7 40.3999 43.7 41.0999 43.9C42.3999 44.2 43.4999 45.1 44.0999 46.2C44.7999 47.4 44.8999 48.7 44.5999 50C44.5999 50.5 44.2999 50.8 43.8999 50.9Z" fill="#83BF4F"/>
<path d="M37.1 36.2C38.5 40.3 36.3 44.7 32.1 46.1C27.9 47.5 23.4 45.3 22.1 41.2C20.7 37.1 22.9 32.7 27.1 31.3C31.2 29.9 35.7 32.1 37.1 36.2Z" fill="#B21725"/>
<path d="M49.6001 37C50.4001 39.5 49.1001 42.1 46.6001 43C44.1001 43.8 41.4001 42.5 40.6001 40C39.8001 37.5 41.1001 34.9 43.6001 34C46.0001 33.2 48.7001 34.5 49.6001 37Z" fill="#B21725"/>
<path d="M29 19C30.1 22.3 28.3 26 24.9 27.1C21.5 28.2 17.8 26.4 16.7 23.1C15.6 19.8 17.4 16.1 20.8 15C24.2 13.9 27.9 15.7 29 19" fill="#B21725"/>
<path d="M34.4 54L24.7 56.4C23.8 53.8 25.6 50.7 28.2 50C31.4 49.2 33.5 51.5 34.4 54Z" fill="#B21725"/>
<path d="M19.6 47C20.8 50.4 18.9 54.2 15.4 55.3C11.9 56.5 8.10002 54.6 6.90002 51.1C5.70002 47.7 7.60002 43.9 11.1 42.8C14.6 41.7 18.4 43.6 19.6 47Z" fill="#B21725"/>
<path d="M15.5 7.7C20.8 7.8 26.1 8.8 31.1 10.8C36.1 12.7 40.8 15.7 44.6 19.6C48.4 23.4 51.4 28.1 53.4 33.1C55.4 38.1 56.4 43.4 56.5 48.7C55.6 43.5 54.2 38.4 52 33.7C49.8 29 46.9 24.6 43.2 21C39.6 17.3 35.2 14.4 30.5 12.3C25.8 10 20.7 8.6 15.5 7.7" fill="#E0A763"/>
<path d="M16.7941 13.436L18.7741 11.456L20.7541 13.436L18.7741 15.416L16.7941 13.436Z" fill="#FFAB41"/>
<path d="M29.72 19.044L31.7 17.064L33.68 19.044L31.7 21.024L29.72 19.044Z" fill="#FFAB41"/>
<path d="M12.908 26.448L14.888 24.468L16.868 26.448L14.888 28.428L12.908 26.448Z" fill="#FFAB41"/>
<path d="M19.748 32.135L21.728 30.155L23.708 32.135L21.728 34.115L19.748 32.135Z" fill="#FFAB41"/>
<path d="M37.545 32.39L39.525 30.41L41.505 32.39L39.525 34.37L37.545 32.39Z" fill="#FFAB41"/>
<path d="M49.024 46.541L51.0041 44.561L52.9841 46.541L51.0041 48.521L49.024 46.541Z" fill="#FFAB41"/>
<path d="M19.6171 44.652L21.5971 42.672L23.5771 44.652L21.5971 46.632L19.6171 44.652Z" fill="#FFAB41"/>
<path d="M21.0341 51.903L23.0141 49.923L24.9941 51.903L23.0141 53.883L21.0341 51.903Z" fill="#FFAB41"/>
<path d="M4.33801 58.241L6.31801 56.261L8.29801 58.241L6.31801 60.221L4.33801 58.241Z" fill="#FFAB41"/>
<path d="M13.97 17.328L15.455 15.843L16.94 17.328L15.455 18.813L13.97 17.328Z" fill="#FFAB41"/>
<path d="M26.552 27.893L28.037 26.408L29.522 27.893L28.037 29.378L26.552 27.893Z" fill="#FFAB41"/>
<path d="M40.075 27.955L41.56 26.47L43.0449 27.955L41.56 29.44L40.075 27.955Z" fill="#FFAB41"/>
<path d="M13.436 36.164L14.921 34.679L16.406 36.164L14.921 37.649L13.436 36.164Z" fill="#FFAB41"/>
<path d="M7.35999 42.1L8.84499 40.615L10.33 42.099L8.84499 43.584L7.35999 42.1Z" fill="#FFAB41"/>
<path d="M5.03003 54.485L6.51503 53L8.00003 54.485L6.51503 55.97L5.03003 54.485Z" fill="#FFAB41"/>
<path d="M17.876 55.286L19.361 53.801L20.846 55.287L19.361 56.771L17.876 55.286Z" fill="#FFAB41"/>
<path d="M30.778 48.346L32.263 46.861L33.748 48.346L32.263 49.831L30.778 48.346Z" fill="#FFAB41"/>
<path d="M37.042 50.896L38.527 49.411L40.012 50.896L38.527 52.38L37.042 50.896Z" fill="#FFAB41"/>
<path d="M45.376 45.17L46.861 43.686L48.346 45.171L46.861 46.656L45.376 45.17Z" fill="#FFAB41"/>
</svg>
