<svg width="142" height="142" viewBox="0 0 142 142" fill="none" xmlns="http://www.w3.org/2000/svg">
<path d="M134.483 110.303C134.483 115.829 131.326 120.883 126.337 123.259C116.917 127.746 98.9682 133.793 70.6433 133.793C42.3185 133.793 24.3696 127.746 14.9499 123.259C9.96053 120.883 6.80408 115.829 6.80408 110.303C6.80408 102.364 13.2401 95.9277 21.1794 95.9277H120.107C128.047 95.9277 134.483 102.364 134.483 110.303Z" fill="#E59328"/>
<path d="M133.928 88.4039C133.928 82.8775 130.771 77.8241 125.782 75.4475C116.362 70.9603 98.4132 64.9134 70.0884 64.9134C41.7636 64.9134 23.8147 70.9603 14.395 75.4475C9.40559 77.8241 6.24915 82.8775 6.24915 88.4039C6.24915 88.4838 6.25386 88.5625 6.25525 88.6418C6.25386 88.7214 6.24915 88.8002 6.24915 88.8798C6.24915 94.4062 9.40559 99.4596 14.395 101.836C23.8147 106.323 41.7636 112.37 70.0884 112.37C98.4132 112.37 116.362 106.323 125.782 101.836C130.771 99.4596 133.928 94.4062 133.928 88.8798C133.928 88.7999 133.923 88.7212 133.922 88.6418C133.923 88.5622 133.928 88.4835 133.928 88.4039V88.4039Z" fill="#7A2F18"/>
<path d="M71.51 102.531C103.893 102.531 130.145 93.5893 130.145 82.5586C130.145 71.5278 103.893 62.5857 71.51 62.5857C39.1269 62.5857 12.8751 71.5278 12.8751 82.5586C12.8751 93.5893 39.1269 102.531 71.51 102.531Z" fill="#DB1D1D"/>
<path d="M71.51 94.9281C103.893 94.9281 130.145 85.9859 130.145 74.9552C130.145 63.9245 103.893 54.9823 71.51 54.9823C39.1269 54.9823 12.8751 63.9245 12.8751 74.9552C12.8751 85.9859 39.1269 94.9281 71.51 94.9281Z" fill="#FF473E"/>
<path d="M135.066 62.3735C128.364 58.6532 118.569 57.1894 109.958 57.1933C105.261 57.1955 100.479 57.6856 95.9961 58.6022C92.5041 59.3161 89.0911 60.2194 85.4998 60.6842C84.8978 60.7091 84.2952 60.7147 83.6929 60.7011C83.2799 60.6371 82.8688 60.5614 82.4601 60.474C80.9713 59.9739 79.5574 59.3884 78.1144 58.829C75.8019 57.9329 73.3804 57.2324 70.8896 56.5715C66.5078 55.4091 61.8928 54.855 57.1963 54.5779C48.3274 54.0546 39.1842 55.3914 31.2987 58.0772C30.036 58.1813 28.7903 58.4362 27.5882 58.8363C19.5388 61.5207 12.7217 65.8053 7.93392 70.8095C6.91717 71.8722 6.01692 72.9836 5.24424 74.1315C3.55993 76.634 2.04896 79.208 3.54301 81.9753C6.3403 87.1569 14.7003 89.0473 22.3907 87.8314C27.6952 86.9927 31.8315 84.6949 35.9914 82.5211C37.0342 82.0269 38.1136 81.5759 39.2521 81.1893C39.3786 81.1624 39.5048 85.8531 39.6321 85.8287C40.6988 86.4688 41.7033 87.1528 42.7935 87.7774C44.6506 88.8415 46.6375 89.8669 48.7503 90.7072C53.0772 92.4287 58.2521 93.5311 63.3433 93.5001C68.5449 93.4684 73.5127 92.3779 77.6171 90.2965C79.8037 89.1874 81.5973 87.8791 82.9831 86.2861C83.4904 85.7031 83.9286 85.0993 84.4084 84.5111C84.8009 84.5787 87.7701 80.844 88.8057 81.3363C91.398 82.7006 93.9291 84.1344 96.7386 85.2979C100.624 86.9068 105.196 87.8728 109.807 87.8808C118.685 87.8969 127.061 84.533 133.226 80.5692C136.406 78.5238 139.381 75.8089 140.256 72.8862C141.415 69.0142 139.763 64.9805 135.066 62.3735V62.3735ZM44.1489 68.436C46.0034 68.038 47.8765 67.7321 49.7612 67.5196C52.3614 67.3565 54.9692 67.3565 57.5693 67.5196C60.0105 67.7956 62.3967 68.2163 64.7164 68.7865C66.5563 69.3678 68.285 74.7838 70.0459 75.4536C68.262 76.8353 67.2566 78.4838 65.7875 80.0076C65.7129 80.058 65.6358 80.1071 65.559 80.1562C65.3683 80.2323 65.1763 80.305 64.983 80.3742C64.6218 80.4475 64.2588 80.5119 63.8944 80.5672C63.4275 80.5799 62.9604 80.5793 62.4935 80.5656C61.7971 80.4622 61.1049 80.3328 60.4182 80.1776C59.3147 79.813 58.2323 79.3874 57.176 78.9026C55.2399 77.8174 53.4885 76.6037 51.4669 75.5784C49.2837 74.4715 46.805 68.8808 44.1489 68.436V68.436ZM116.988 72.7886C115.577 73.4537 114.106 74.0522 112.549 74.5569C111.858 74.7138 111.161 74.8442 110.46 74.948C110.099 74.9568 109.738 74.9575 109.376 74.9499C109.018 74.8933 108.661 74.8278 108.305 74.7536C107.068 74.332 105.905 73.8314 104.777 73.2903C103.447 72.5856 102.132 71.8573 100.783 71.1617C102.626 70.7856 104.483 70.4556 106.391 70.2284C108.819 70.0797 111.253 70.0812 113.68 70.2329C115.669 70.4612 117.644 70.7975 119.596 71.2402C118.773 71.7874 117.896 72.2991 116.988 72.7886V72.7886Z" fill="#00B89C"/>
<path d="M31.9073 92.087C28.1851 86.0659 21.0299 74.9668 12.0903 63.4124C-0.754642 65.5924 101.616 48.3371 101.616 48.3371C130.204 51.3482 133.98 65.4917 133.994 72.7026C133.999 75.0107 132.019 76.8264 129.717 76.6636C68.474 72.3274 45.5437 85.9982 37.9911 92.9443C36.1509 94.6361 33.2219 94.2134 31.9073 92.087V92.087Z" fill="#FECB21"/>
<path d="M70.0884 7.09639C35.921 7.09639 6.24915 28.6759 6.24915 54.6692C6.24915 68.5283 34.8308 79.7632 70.0884 79.7632C105.346 79.7632 133.928 68.5283 133.928 54.6692C133.928 29.4112 104.256 7.09639 70.0884 7.09639V7.09639Z" fill="#E59328"/>
<path d="M30.0532 36.9721L32.7327 42.7778C32.8845 43.1068 32.8994 43.4827 32.7741 43.8228C32.6488 44.1628 32.3936 44.4392 32.0645 44.5911C31.8732 44.6784 31.6644 44.7208 31.4541 44.715C31.2438 44.7092 31.0377 44.6553 30.8514 44.5575L25.203 41.5613C23.4841 40.6494 22.8295 38.5167 23.7414 36.7977C24.6534 35.0787 26.7861 34.4242 28.5051 35.3361C29.1868 35.6966 29.7309 36.2716 30.0532 36.9721V36.9721ZM86.5346 16.4271C84.8156 15.5152 82.6828 16.1697 81.7709 17.8887C80.859 19.6076 81.5135 21.7404 83.2325 22.6523L88.8809 25.6485C89.0671 25.7463 89.2733 25.8001 89.4835 25.806C89.6938 25.8118 89.9026 25.7694 90.094 25.682C90.423 25.5302 90.6783 25.2538 90.8036 24.9138C90.9289 24.5737 90.914 24.1978 90.7621 23.8688L88.0827 18.0631C87.7601 17.3627 87.2161 16.7878 86.5346 16.4271ZM54.751 23.5667C53.6349 21.9726 51.4378 21.5851 49.8436 22.7014C48.2495 23.8174 47.862 26.0146 48.9783 27.6087L52.6457 32.8464C52.767 33.0182 52.926 33.16 53.1106 33.2608C53.2953 33.3616 53.5005 33.4188 53.7107 33.428C54.0728 33.4424 54.4258 33.3124 54.6921 33.0665C54.9584 32.8207 55.1162 32.4791 55.1307 32.117L55.3855 25.7281C55.4169 24.9575 55.1939 24.198 54.751 23.5667V23.5667ZM119.514 39.1432C120.357 37.3036 119.549 35.1289 117.71 34.2861C115.87 33.4429 113.696 34.2508 112.853 36.0902L110.785 40.6009C110.672 40.8494 110.632 41.1254 110.671 41.3959C110.71 41.6663 110.826 41.9198 111.006 42.1259C111.185 42.332 111.42 42.4819 111.683 42.5578C111.946 42.6337 112.224 42.6323 112.486 42.5537L117.238 41.1254C118.205 40.83 119.06 40.1341 119.514 39.1432V39.1432ZM67.2467 54.0235C65.3338 53.6666 63.4937 54.9276 63.1365 56.8405C62.7795 58.7533 64.0406 60.5935 65.9534 60.9507L72.2389 62.1239C72.4458 62.1616 72.6586 62.1515 72.861 62.0943C73.0633 62.0371 73.2499 61.9343 73.4065 61.7938C73.5396 61.6735 73.6476 61.528 73.7245 61.3659C73.8013 61.2037 73.8455 61.028 73.8544 60.8488C73.8634 60.6695 73.8369 60.4903 73.7766 60.3213C73.7162 60.1523 73.6232 59.9968 73.5027 59.8638L69.2125 55.1229C68.6958 54.5504 68.0049 54.1641 67.2467 54.0235V54.0235ZM101.124 59.3635C101.903 61.1468 103.98 61.9608 105.764 61.1818C107.547 60.4027 108.361 58.3257 107.582 56.5423L105.022 50.6832C104.937 50.4908 104.809 50.3204 104.648 50.185C104.487 50.0497 104.297 49.953 104.093 49.9025C103.919 49.86 103.738 49.8523 103.56 49.8798C103.383 49.9073 103.213 49.9695 103.059 50.0628C102.906 50.156 102.773 50.2786 102.667 50.4235C102.561 50.5683 102.484 50.7326 102.442 50.907L100.929 57.1195C100.746 57.8686 100.815 58.6571 101.124 59.3635V59.3635ZM48.199 57.6126C48.4225 55.6573 47.0186 53.8912 45.0634 53.6677C43.1081 53.4441 41.342 54.8481 41.1184 56.8033L40.3843 63.2277C40.366 63.3917 40.383 63.5578 40.4341 63.7147C40.4852 63.8716 40.5692 64.0158 40.6805 64.1377C40.8871 64.3626 41.1746 64.4962 41.4798 64.5091C41.7849 64.5221 42.0827 64.4133 42.3077 64.2067L47.0694 59.8322C47.7007 59.2524 48.1018 58.4643 48.199 57.6126V57.6126ZM80.4924 46.0041C82.3189 46.675 84.3435 45.7381 85.0144 43.9116C85.6853 42.085 84.7485 40.0604 82.9219 39.3895L76.9199 37.1851C76.7221 37.1135 76.5106 37.0881 76.3015 37.1107C76.0924 37.1334 75.8912 37.2037 75.7134 37.316C75.408 37.511 75.1925 37.8194 75.1143 38.1733C75.0362 38.5272 75.1019 38.8976 75.2969 39.2031L78.737 44.5927C79.1513 45.2432 79.7681 45.7392 80.4924 46.0041V46.0041Z" fill="#FFCD7D"/>
</svg>
