<svg width="128" height="128" viewBox="0 0 128 128" fill="none" xmlns="http://www.w3.org/2000/svg">
<path d="M57.68 99.28C57.06 99.83 57.5099 100.97 57.5099 101.74V104.4C57.5099 105.85 56.9899 107.11 56.1699 108.25C53.9599 111.35 50.03 112.61 46.7 114.1C44.45 115.11 38.9399 117.48 39.2599 120.59C39.6599 124.38 46.27 125.98 49.13 126.63C55.77 128.15 62.63 127.77 69.36 127.24C72.21 127.01 75.14 126.57 77.91 125.85C79.91 125.33 84.77 124.1 85.44 121.72C86.66 117.33 77.8799 114.82 75.1699 113.65C71.4499 112.05 67.3099 109.87 67.3099 105.25C67.2999 103.98 67.2999 102.73 67.4899 101.5C67.6099 100.68 67.31 99 68.16 98.58L57.68 99.28V99.28Z" fill="white"/>
<path d="M62.31 107.18C63.41 114.21 70.3899 117.2 73.1399 118.38C73.5899 118.57 74.18 118.8 74.86 119.06C75.53 119.32 76.9199 119.84 78.1999 120.44C77.7499 120.57 77.2299 120.71 76.6299 120.87C74.3099 121.47 71.73 121.89 68.97 122.11C66.02 122.34 62.86 122.56 59.82 122.56C56.1899 122.56 53.08 122.25 50.28 121.61C48.14 121.13 46.73 120.66 45.8 120.28C46.47 119.91 47.37 119.46 48.58 118.91L48.81 118.81C49.31 118.58 49.84 118.36 50.36 118.14C53.61 116.76 57.66 115.03 60.36 111.26C61.29 109.96 61.94 108.6 62.31 107.18V107.18ZM68.1699 98.59L57.68 99.28C57.06 99.83 57.5099 100.97 57.5099 101.74V104.4C57.5099 105.85 56.9899 107.11 56.1699 108.25C53.9599 111.35 50.03 112.61 46.7 114.1C44.45 115.11 38.9399 117.48 39.2599 120.59C39.6599 124.38 46.27 125.98 49.13 126.63C52.64 127.43 56.22 127.71 59.81 127.71C63 127.71 66.2 127.49 69.37 127.24C72.22 127.01 75.1499 126.57 77.9199 125.85C79.9199 125.33 84.7799 124.1 85.4499 121.72C86.6699 117.33 77.89 114.82 75.18 113.65C71.46 112.05 67.32 109.87 67.32 105.25C67.31 103.98 67.31 102.73 67.5 101.5C67.62 100.7 67.3199 99.01 68.1699 98.59V98.59Z" fill="#78A3AD"/>
<path d="M95.67 57.3C93.52 47.45 96.68 40.27 96.68 40.27H30.96C30.96 40.27 34.12 47.45 31.97 57.3C30.04 67.43 23.34 76.48 26.26 90.54C30.96 113.15 62.91 112.52 62.91 112.52C62.91 112.52 63.24 112.52 63.83 112.5C64.42 112.52 64.75 112.52 64.75 112.52C64.75 112.52 96.69 113.15 101.39 90.54C104.3 76.48 97.6 67.43 95.67 57.3V57.3Z" fill="white"/>
<path d="M90.19 45.35C89.71 48.79 89.59 53.27 90.68 58.31C91.36 61.81 92.51 65.11 93.62 68.31C95.94 74.94 98.12 81.2 96.4 89.5C92.78 106.93 67.83 107.43 65 107.43H64.66C64.56 107.43 64.33 107.43 64 107.42H63.64C63.31 107.43 63.08 107.43 62.96 107.43H62.63C59.8 107.43 34.85 106.93 31.22 89.5C29.5 81.21 31.68 74.95 34 68.32C35.12 65.12 36.27 61.82 36.94 58.32C38.03 53.27 37.91 48.79 37.44 45.36H90.19V45.35ZM96.68 40.27H96.69H96.68ZM96.68 40.27H30.96C30.96 40.27 34.12 47.45 31.97 57.3C30.04 67.43 23.34 76.48 26.26 90.54C30.71 111.95 59.59 112.52 62.65 112.52H62.99C63.12 112.52 63.41 112.52 63.83 112.5C64.25 112.51 64.54 112.52 64.67 112.52H65.01C68.06 112.52 96.94 111.95 101.39 90.54C104.31 76.48 97.61 67.43 95.68 57.3C93.52 47.45 96.68 40.27 96.68 40.27V40.27Z" fill="#78A3AD"/>
<path d="M96.68 40.27C96.68 47.3 81.96 51.21 63.82 51.21C45.67 51.21 30.96 47.3 30.96 40.27C30.96 33.25 45.67 29.33 63.82 29.33C81.96 29.33 96.68 33.25 96.68 40.27Z" fill="white"/>
<path d="M63.81 35.15C80.81 35.15 88.8899 38.6 90.6399 40.28C88.8899 41.95 80.81 45.4 63.81 45.4C46.81 45.4 38.74 41.95 36.99 40.28C38.74 38.6 46.82 35.15 63.81 35.15ZM63.81 29.33C45.66 29.33 30.95 33.25 30.95 40.27C30.95 47.3 45.66 51.21 63.81 51.21C81.96 51.21 96.67 47.3 96.67 40.27C96.68 33.25 81.96 29.33 63.81 29.33Z" fill="#78A3AD"/>
<path d="M85.32 58.63C84.53 58 83.45 58.53 82.4 58.76C76.31 60.08 70.02 60.49 63.81 60.49C62.27 60.49 60.74 60.46 59.21 60.4C56.06 60.28 52.91 60.02 49.78 59.57C48.38 59.37 46.99 59.13 45.6 58.84C44.96 58.71 44.3 58.46 43.65 58.4C43.22 58.35 42.36 58.35 42.06 58.68C41.86 58.9 41.75 59.41 41.68 59.7C41.43 60.75 41.41 61.86 41.18 62.92C39.81 70.12 35.05 76.55 37.12 86.54C40.46 102.61 63.17 102.16 63.17 102.16C63.17 102.16 63.41 102.16 63.82 102.15C64.24 102.16 64.48 102.16 64.48 102.16C64.48 102.16 87.18 102.61 90.52 86.54C92.6 76.55 87.83 70.12 86.46 62.92C86.31 62.14 86.16 61.38 86.08 60.59C86.03 60.14 86.03 59.65 85.81 59.24C85.6841 59.0093 85.5181 58.8027 85.32 58.63V58.63Z" fill="#F79329"/>
<path d="M22.49 59.85C22.28 60.03 22.05 60.18 21.79 60.24C20.07 60.69 19.18 58.74 18.41 57.62C17.3477 56.0586 16.4401 54.3974 15.7 52.66C14.23 49.22 13.43 45.54 13.06 41.82C12.2 33.27 13.72 25.12 18.97 18.49C25.96 9.69 35.25 7.08 43.95 7.15C47.35 7.18 50.74 7.8 54 8.76C55.82 9.29 58.92 10.4 58.8 12.09C58.62 14.49 56.2 16.98 54.83 18.76C52.19 22.21 49.45 25.59 46.63 28.9C43.67 32.37 41.3 36.28 38.64 39.96C34.43 45.75 22.74 59.65 22.49 59.85V59.85Z" fill="#F79329"/>
<path d="M24.1 23.97C22.65 25.83 21.83 28.22 21.77 30.57C21.72 32.47 22.11 34.63 23.95 35.52C25.1 36.08 41.24 39.71 42.38 38.88C43.03 38.4 43.22 37.7 43.07 36.91C42.82 35.52 36.02 22.29 33.52 19.94C31.14 17.68 27.21 19.98 24.1 23.97V23.97Z" fill="#FCC21B"/>
<path d="M19.8501 48.4C22.3801 55.53 26.6301 58.26 26.6301 58.26C26.6301 58.26 27.8901 57.96 28.7801 57.87C29.5901 57.78 29.8901 57.34 30.4101 56.82C31.1301 56.09 31.9601 55.48 32.6601 54.74C33.5601 53.79 34.3301 52.65 35.2001 51.64C35.9001 50.84 36.3701 49.87 36.9401 48.99C37.3701 48.32 37.9301 47.85 38.3701 47.2C39.3001 45.84 41.8701 43.72 41.8501 42.01C41.8401 41.57 42.3701 39.87 42.3701 39.87C42.3701 39.87 24.4501 39.86 21.7201 40.69C18.5901 41.63 18.2701 43.97 19.8501 48.4V48.4Z" fill="#FCC21B"/>
<path d="M50.75 13.27C52.58 13.86 56.21 15.23 57.38 17.23C57.82 17.99 56.79 19.68 56.42 20.32C55.9 21.21 55.53 22.17 54.99 23.04C54.31 24.16 53.4 25.19 52.66 26.3C52.07 27.18 51.26 27.9 50.56 28.67C50.03 29.26 49.71 29.92 49.2 30.52C48.13 31.77 46.72 34.69 45.09 35.22C43.55 35.73 40.45 25.8 38.59 16.13C38.18 14.02 40.25 13.18 42.41 12.71C45.71 11.98 49.01 12.72 50.75 13.27Z" fill="#FCC21B"/>
<path d="M121.19 23.7C118.4 20.93 115.18 19.63 111.83 19.18C112.17 19.22 112.56 17.88 112.63 17.67C112.83 17.1 113.14 16.8 113.52 16.32C113.87 15.87 114.07 15.4 114.3 14.9C114.78 13.88 114.91 13.06 114.78 11.92C114.63 10.56 114.23 9.43 113.4 8.34C112.68 7.39 111.91 6.32 110.9 5.67C109.9 5.03 109.09 4.69 107.91 4.69C106.29 4.69 105.22 3.34 103.7 2.92C101.37 2.28 99.3901 3.2 97.4701 4.41C97.0201 4.69 94.5701 6.06 94.8001 6.62C94.4501 5.75 94.0501 4.9 93.5401 4.1C90.6201 -0.529998 84.49 -0.509998 80.13 1.76C78.96 2.37 78.2801 3.51 76.9801 4.04C75.8901 4.49 75.0501 5.31 74.2201 6.13C72.2401 8.08 71.82 11.18 72.14 13.78C72.46 16.39 73.8301 18.05 75.9001 19.42C73.3301 19.66 70.88 20.45 68.88 22.11C66.55 24.04 65.25 26.59 65.28 29.69C65.3 31.57 66.29 33.47 66.42 35.47C66.52 37.03 67.32 38.48 68.17 39.71C71.2 44.08 77.2601 45.39 82.1101 43.81C82.1901 45.3 82.4901 46.72 83.1101 47.93C84.1201 49.93 86.19 51.78 88.18 52.56C89.52 53.09 91.4801 52.86 92.6901 53.68C93.8601 54.48 95.03 54.95 96.42 54.98C101.72 55.11 107.35 51.75 108.92 46.27C109.14 45.48 109.24 44.64 109.24 43.78C112.18 44.1 115.13 43.71 116.73 42.8C118.48 41.79 119.19 39.97 120.82 38.89C122.23 37.96 123.53 36.43 123.29 34.51C122.79 30.57 124.63 27.12 121.19 23.7V23.7Z" fill="#ED6C30"/>
<path d="M91.7301 14.42C91.3801 14.46 91.0101 14.26 90.5301 13.97C89.5701 13.39 88.7001 12.66 87.6901 12.15C86.5701 11.59 85.3901 11.08 84.1401 10.92C83.6901 10.86 83.1501 10.77 82.7101 10.94C81.0701 11.58 82.1201 13 82.9101 13.86C83.9401 14.98 85.0601 16.02 85.9401 17.28C86.6301 18.26 89.1501 20.93 86.3001 20.24C85.0201 19.93 83.6201 19.92 82.3101 19.96C81.0701 20 79.8501 20.26 78.8401 21C78.5101 21.24 77.9901 21.65 78.1001 22.13C78.1901 22.55 78.6901 22.79 79.0401 22.95C80.3401 23.54 81.8101 23.76 83.1901 24.09C83.7901 24.24 84.4501 24.36 84.9901 24.68C86.1301 25.37 84.4001 25.75 83.8901 26.01C83.4201 26.25 82.9101 26.44 82.4401 26.7C81.8401 27.03 81.2501 27.37 80.6801 27.76C80.3701 27.98 80.0601 28.2 79.7801 28.46C79.0601 29.12 78.2901 30.86 79.8801 30.86C80.5501 30.86 81.2101 30.79 81.8701 30.71C82.6401 30.61 85.6401 29.71 86.0701 30.73C86.3101 31.31 85.6401 31.97 85.3801 32.44C84.8201 33.48 84.3401 34.57 84.0601 35.71C83.8201 36.71 83.4001 38.65 84.8401 38.94C86.0801 39.19 87.2101 37.75 87.9601 36.97C88.9901 35.9 89.9501 34.69 91.2801 33.98C93.4001 32.85 92.8501 36.19 92.7401 37.5C92.6301 38.84 92.7201 40.22 92.7201 41.56C92.7201 42.09 92.6501 42.78 93.2801 42.97C95.8501 43.73 96.3201 38.85 96.8801 37.32C97.6801 35.11 99.5501 37.44 100.28 38.44C100.73 39.06 103.02 43.62 103.91 41.4C104.23 40.6 104.05 39.51 104.05 38.65C104.05 37.75 103.79 36.85 103.55 36.01C103.44 35.64 103.29 35.28 103.2 34.91C103.11 34.52 103.04 34.29 103.49 34.24C105.03 34.06 106.56 34.92 107.93 35.5C108.38 35.69 112.29 37.2 112.49 36.25C112.79 34.82 111.72 33.46 110.82 32.48C110.26 31.87 109.66 31.32 109.04 30.77C108.6 30.38 108 30.06 108.52 29.46C108.7 29.26 108.87 29.19 109.14 29.18C109.99 29.15 110.88 29.3 111.74 29.3C112.56 29.31 113.92 29.68 114.64 29.18C115.92 28.3 113.98 26.37 113.62 25.47C113.28 24.62 112.55 23.91 111.85 23.32C111.123 22.6989 110.299 22.2022 109.41 21.85C108.96 21.67 108.5 21.54 108.03 21.45C107.9 21.42 106.56 21.32 106.56 21.31C106.17 19.93 111.58 15.93 112.51 14.33C111.12 14.04 109.13 14.04 107.73 14.33C106.55 14.58 105.52 15.24 104.39 15.59C104.03 15.7 103.3 15.98 102.93 15.76C102.54 15.52 102.77 14.9 102.89 14.56C103.07 14.07 103.54 13.55 103.89 13.15C104.52 12.41 105.93 10.88 104.05 10.74C102.37 10.62 100.67 11.94 99.3401 12.83C98.8201 13.18 98.3601 13.66 97.8501 14.04C97.5801 14.24 97.3701 14.48 97.0101 14.26C96.7701 14.11 96.6401 13.77 96.6701 13.5C96.7501 12.83 97.0101 12.18 97.2401 11.55C97.5601 10.68 98.2501 9.43 98.0701 8.49C97.8701 7.43 96.6801 7.94 96.1301 8.4C95.5101 8.91 95.0501 9.6 94.5801 10.22C94.0701 10.88 93.6201 11.58 93.2201 12.31C92.9401 12.83 92.8601 13.4 92.5101 13.88C92.2101 14.22 91.9801 14.38 91.7301 14.42V14.42Z" fill="white"/>
<path d="M125.57 13.72C122.53 9.9 117.48 9.19 112.9 10.15C110.19 10.72 108.09 12.63 105.55 13.61C102.71 14.7 99.52 14.54 96.74 15.76C90.54 18.46 88.07 28.18 95.57 30.93C97.71 31.72 100.09 32.15 102.35 31.65C105.36 30.99 107.29 28.2 110.26 27.47C112.33 26.96 114.51 27.24 116.6 26.84C117.46 26.67 118.32 26.46 119.15 26.19C121.27 25.51 123.54 24.52 125.15 22.94C127.64 20.48 127.69 16.38 125.57 13.72Z" fill="#ED6C30"/>
<path d="M119.2 21.92C118.03 22.43 116.77 22.79 115.58 22.94C113.5 23.21 111.43 22.78 109.3 23.29C106.35 23.98 104.09 26.52 101.19 27.33C97.63 28.33 94.92 26.9 94.9 23.15C94.89 21.85 95.56 21.14 96.67 20.44C98.97 18.98 101.86 18.89 104.42 18.13C105.45 17.83 106.5 17.39 107.51 16.95C108.43 16.55 109.25 15.95 110.13 15.43C112.17 14.23 115.42 13.63 117.75 13.85C120.17 14.08 123.28 14.53 123.27 17.53C123.26 19.37 122.66 19.9 121.17 20.87C120.56 21.27 119.9 21.62 119.2 21.92V21.92Z" fill="#FCC21B"/>
</svg>
