<svg width="128" height="128" viewBox="0 0 128 128" fill="none" xmlns="http://www.w3.org/2000/svg">
<path d="M29.46 59.86L26.84 54.17L20.43 29.25L18.8 25.37L21.15 19.59C21.15 19.59 24.4801 20.06 27.0201 22.93C30.11 26.43 35.1501 36.9 35.1501 36.9L34.09 28.64L39.84 13.73C39.84 13.73 42.36 13.46 43.03 14.15C44.22 15.37 46.2501 23.93 46.9701 26.64C47.6901 29.35 48.6901 33.05 49.9501 34.67C51.2101 36.29 52.75 36.66 52.75 36.66L57.26 19.24L58.34 3.44C58.34 3.44 59.9201 3.43 62.1301 3.89C63.8001 4.24 64.92 4.81 65.46 5.48C66 6.15 66.02 16.8 66.02 16.8C66.02 16.8 75.5501 8.68 75.8601 8.77C76.5201 8.95 78.5701 9.4 79.6501 10.58C80.7301 11.75 79.83 16.09 79.02 18.98C78.21 21.87 75.4101 31.26 75.4101 31.26L77.9401 30.3L78.5 30.84L83.2101 23.61C83.2101 23.61 84.9101 23.6 86.2901 24.28C87.7901 25.02 88.69 26.84 88.69 26.84L100.79 9.33C100.79 9.33 101.71 10.15 102.52 10.96C103.33 11.77 103.9 12.34 103.94 13.16C103.98 13.97 101.06 19.36 99.7101 22.07C98.3601 24.78 96.1001 30.2 96.1001 30.2L105.94 22.69C105.94 22.69 109.2 23.15 109.3 24.23C109.39 25.31 107.66 27.31 105.94 30.29C104.22 33.27 101.34 39.05 100.34 41.03C99.34 43.01 100.7 43.11 100.7 43.11L112.49 35.66C112.49 35.66 115.03 36.18 115.27 37.36C115.54 38.71 112.62 41.4 110.72 43.56C108.82 45.73 104.76 50.96 102.69 55.03C100.62 59.1 99.2301 61.64 99.2301 61.64L81.28 79.45L33.5201 76.56L29.46 59.86V59.86Z" fill="url(#paint0_radial_9401_114)"/>
<path d="M89.17 40.2C87.97 40.48 84.18 47.04 80.64 57.02C78.51 63.02 77.1 69.58 77.18 72.72C77.26 75.86 82 74.9 82 74.9L84.01 68.38C84.01 68.38 86.26 60.73 88.92 55.02C92.03 48.32 96.06 44.06 95.76 43.03C95.36 41.65 90.86 39.8 89.17 40.2V40.2Z" fill="#FBDE93"/>
<path d="M101.08 23.14C99.4 24.12 95.61 30.46 94.48 32.88C93.35 35.3 93.31 39.85 94.55 40.44C96.08 41.16 97.78 36.02 100.36 31.75C102.94 27.48 105.99 22.65 105.99 22.65C105.99 22.65 103.01 22.01 101.08 23.14V23.14Z" fill="#FBDE93"/>
<path d="M107.44 35.7C104.87 36.79 100.08 41.9 98.42 44.47C95.36 49.22 93.11 54.53 92.3 56.7C91.5 58.87 90.85 61.85 93.35 60.48C95.85 59.11 99.06 52.67 103.17 46.88C107.93 40.16 112.51 35.61 112.51 35.61C112.51 35.61 109.53 34.81 107.44 35.7Z" fill="#FBDE93"/>
<path d="M96.65 7.04C95.66 6.92 92.95 14.12 91.42 17.58C89.89 21.04 87.85 25.62 87.85 25.62C87.85 25.62 86.67 34.73 88.36 34.89C90.05 35.05 93.36 23.94 95.83 18.85C98.24 13.89 100.78 9.3 100.78 9.3C100.78 9.3 98.58 7.28 96.65 7.04V7.04Z" fill="#FBDE93"/>
<path d="M78.85 25.08C77.96 26.02 78.46 30.86 78.46 30.86C78.46 30.86 81.92 33.44 82.57 32.87C83.22 32.3 83.25 23.56 83.25 23.56C83.25 23.56 80.3 23.55 78.85 25.08V25.08Z" fill="#FBDE93"/>
<path d="M71.7 31.67C70.45 32.72 71.3 37.64 70.98 42.05C70.5 48.65 68.57 62.17 68 66.12C67.43 70.07 66.87 74.41 66.87 74.41L73.07 73.44C73.07 73.44 75.48 55.01 76.45 47.92C77.42 40.83 78.86 30.78 77.9 30.21C76.93 29.66 73.23 30.38 71.7 31.67Z" fill="#FBDE93"/>
<path d="M70.95 8.16C69.37 8.46 66.03 16.8 66.03 16.8C66.03 16.8 65.83 22.82 65.83 25.72C65.83 28.62 65.27 32.08 66.23 32.08C67.19 32.08 69.05 26.53 70.98 21.7C72.91 16.87 75.87 8.77 75.87 8.77C75.87 8.77 73.19 7.74 70.95 8.16V8.16Z" fill="#FBDE93"/>
<path d="M52.78 5.11C51.69 6.26 53.42 9.22 53.58 17.34C53.74 25.47 52.74 36.65 52.74 36.65C52.74 36.65 53.6 36.59 54.14 38.26C54.6 39.67 55.35 48.24 56.31 47.92C57.28 47.6 58.48 41.88 59.45 32.22C60.42 22.56 60.01 15.08 59.69 12.02C59.37 8.96 58.33 3.42 58.33 3.42C58.33 3.42 54.39 3.42 52.78 5.11V5.11Z" fill="#FBDE93"/>
<path d="M39.84 13.73C39.84 13.73 35.19 14.06 33.91 16.56C32.62 19.06 33.03 20.27 33.27 22.68C33.51 25.09 34.27 29.9 34.27 29.9C34.27 29.9 38.54 35.21 40.87 33.92C43.2 32.64 39.84 13.73 39.84 13.73Z" fill="#FBDE93"/>
<path d="M21.15 19.59C21.15 19.59 18.57 19.11 17.04 19.43C15.51 19.75 15.59 21.2 16.32 22.17C17.04 23.14 20.37 29.16 20.37 29.16C20.37 29.16 21.36 29.18 22.65 29.66C23.94 30.14 26.15 31.34 26.06 29.41C25.9 26.04 21.15 19.59 21.15 19.59V19.59Z" fill="#FBDE93"/>
<path d="M28.42 57.6C28.42 57.6 23.56 47.77 19.94 42.37C16.32 36.97 12.53 32.79 12.53 31.91C12.53 31.02 15.03 30.14 16.47 29.74C17.91 29.34 20.42 29.25 20.42 29.25C20.42 29.25 26.37 39.31 28.79 44.79C31.21 50.27 33.46 56.65 32.9 57.43C32.39 58.13 28.78 57.66 28.42 57.6V57.6Z" fill="#FBDE93"/>
<path d="M31.6899 40.04C31.3099 41.45 33.1399 47.85 34.2699 52.44C35.3999 57.03 36.7699 61.86 36.7699 61.86L40.6299 69.75L44.8999 68.22C44.8999 68.22 42.6499 63.87 41.3599 59.37C40.0699 54.85 38.3999 40.83 36.6799 39C35.4799 37.71 31.9399 39.16 31.6899 40.04V40.04Z" fill="#FBDE93"/>
<path d="M45.06 38.43C44.05 39.09 45.62 49.78 46.43 54.21C47.24 58.64 48.93 63.31 49.81 65.48C50.7 67.65 53.27 73.13 53.27 73.13C53.27 73.13 55.93 76.27 56.01 75.95C56.09 75.63 57.22 71.68 57.22 71.68C57.22 71.68 53.67 61.21 53.1 56.7C52.54 52.19 51.65 38.51 50.77 38.03C49.89 37.55 46.67 37.39 45.06 38.43V38.43Z" fill="#FBDE93"/>
<path d="M63.01 38.67C61.8 39.79 60.6 54.61 60.11 60.08C59.62 65.55 59.22 73.6 59.22 73.6L64.61 73.2C64.61 73.2 66.62 53.32 66.94 50.74C67.26 48.16 68.71 42.29 67.99 39.95C67.27 37.63 64.05 37.71 63.01 38.67V38.67Z" fill="#FBDE93"/>
<path d="M26.82 59.43C26.48 60.2 36.99 117.71 37.16 118.57C37.33 119.43 36.99 120.21 38.62 120.98C40.26 121.75 42.82 122.16 44.46 122.34C46.1 122.51 57.39 122.53 57.48 121.16C57.57 119.78 91.32 70.62 91.32 70.62C91.32 70.62 97.54 60.19 97.11 59.33C96.68 58.47 95 58.87 93.17 60.12C91.34 61.38 89.65 64.49 84.51 67.94C78.94 71.68 71.56 72.47 64.14 72.38C57.3 72.29 49.17 71.05 43.35 66.74C38.23 62.94 36.72 60.2 32.16 58.99C28.14 57.92 26.82 59.43 26.82 59.43V59.43Z" fill="#FD703F"/>
<path d="M34.77 63.19L44.31 122.36C44.31 122.36 55.68 124 64.54 124.17C73.41 124.34 83.98 122.49 83.98 122.49L91.66 96.53L98.18 62.28C98.18 62.28 96.57 60.67 94.76 62C93.37 63.02 89.08 69.66 81.5 72.59C72.95 75.89 57.54 76.13 47.92 72.07C39.1 68.36 36.41 63.53 34.77 63.19V63.19Z" fill="#FF2A23"/>
<path d="M89.51 120.67C87.57 121.83 83.05 122.61 83.05 122.61C83.05 122.61 87.53 100.83 90.02 89.46C92.51 78.09 96.1 58.86 96.1 58.86C96.1 58.86 97.54 58.63 99.02 58.81C100.7 59.02 101.7 59.51 102.04 60.04C102.59 60.9 99.28 76.96 96.04 92.64C93.08 107.04 90.54 120.06 89.51 120.67V120.67Z" fill="#DC0D25"/>
<defs>
<radialGradient id="paint0_radial_9401_114" cx="0" cy="0" r="1" gradientUnits="userSpaceOnUse" gradientTransform="translate(64.5871 -7.872) scale(83.128)">
<stop offset="0.447" stop-color="#FCC216"/>
<stop offset="0.59" stop-color="#FABB16"/>
<stop offset="0.794" stop-color="#F3A814"/>
<stop offset="0.921" stop-color="#ED9913"/>
</radialGradient>
</defs>
</svg>
