<svg width="36" height="36" viewBox="0 0 36 36" fill="none" xmlns="http://www.w3.org/2000/svg">
<path d="M3.65101 29.8521L29.926 3.57606C30.317 3.18506 32.814 5.68306 32.423 6.07306L6.14801 32.3491C5.75801 32.7401 3.26001 30.2421 3.65101 29.8521V29.8521Z" fill="#292F33"/>
<path d="M30.442 4.05078L4.146 30.3468L5.029 31.2298L31.325 4.93378L30.442 4.05078Z" fill="#66757F"/>
<path d="M34.546 2.53705L34.134 2.12505L33.463 1.45405C33.3875 1.38454 33.3014 1.32749 33.208 1.28505C33.022 1.18594 32.8092 1.14888 32.6007 1.17929C32.3922 1.20969 32.1989 1.30596 32.049 1.45405L29.947 3.55605L30.442 4.05105L31.325 4.93405L32.444 6.05304L34.546 3.95105C34.6389 3.85826 34.7126 3.74805 34.763 3.62674C34.8133 3.50542 34.8392 3.37538 34.8392 3.24405C34.8392 3.11271 34.8133 2.98267 34.763 2.86135C34.7126 2.74004 34.6389 2.62983 34.546 2.53705V2.53705ZM5.02896 31.23L4.14596 30.347L3.65096 29.852L1.44196 32.06C1.29388 32.21 1.1976 32.4033 1.1672 32.6118C1.1368 32.8203 1.17385 33.0331 1.27296 33.219C1.31896 33.309 1.36696 33.399 1.44196 33.474L2.11296 34.145L2.52496 34.557C2.61775 34.65 2.72795 34.7237 2.84927 34.774C2.97058 34.8244 3.10063 34.8502 3.23196 34.8502C3.36329 34.8502 3.49334 34.8244 3.61465 34.774C3.73597 34.7237 3.84617 34.65 3.93896 34.557L6.14696 32.349L5.02896 31.23V31.23Z" fill="#E1E8ED"/>
<path d="M31.3249 4.93416L34.1339 2.12516L33.463 1.45416C33.3875 1.38465 33.3014 1.3276 33.2079 1.28516L30.4409 4.05216L31.3249 4.93416V4.93416ZM4.14595 30.3472L1.27295 33.2202C1.31895 33.3102 1.36695 33.4002 1.44195 33.4752L2.11295 34.1462L5.02895 31.2302L4.14595 30.3472Z" fill="#F5F8FA"/>
<path d="M28.897 14.913L30.439 14.342L31.039 12.142C31.0775 12.0008 31.1614 11.8763 31.2777 11.7874C31.394 11.6986 31.5362 11.6505 31.6825 11.6505C31.8289 11.6505 31.9711 11.6986 32.0874 11.7874C32.2037 11.8763 32.2875 12.0008 32.326 12.142L32.926 14.342L34.468 14.913C34.5963 14.9596 34.7072 15.0446 34.7855 15.1565C34.8639 15.2683 34.9059 15.4015 34.9059 15.538C34.9059 15.6745 34.8639 15.8078 34.7855 15.9196C34.7072 16.0314 34.5963 16.1164 34.468 16.163L32.934 16.731L32.329 19.146C32.2925 19.2898 32.2092 19.4173 32.0921 19.5084C31.975 19.5995 31.8309 19.6489 31.6825 19.6489C31.5342 19.6489 31.3901 19.5995 31.273 19.5084C31.1559 19.4173 31.0725 19.2898 31.036 19.146L30.431 16.731L28.897 16.163C28.7687 16.1164 28.6579 16.0314 28.5795 15.9196C28.5012 15.8078 28.4592 15.6745 28.4592 15.538C28.4592 15.4015 28.5012 15.2683 28.5795 15.1565C28.6579 15.0446 28.7687 14.9596 28.897 14.913V14.913ZM11.961 5.28501L14.571 4.31901L15.537 1.70901C15.615 1.4973 15.7561 1.3146 15.9411 1.18555C16.1262 1.0565 16.3464 0.987305 16.572 0.987305C16.7977 0.987305 17.0179 1.0565 17.2029 1.18555C17.388 1.3146 17.529 1.4973 17.607 1.70901L18.573 4.31901L21.182 5.28501C21.3937 5.36301 21.5764 5.50405 21.7055 5.68912C21.8346 5.87419 21.9037 6.09439 21.9037 6.32001C21.9037 6.54563 21.8346 6.76583 21.7055 6.9509C21.5764 7.13597 21.3937 7.27702 21.182 7.35501L18.573 8.32101L17.607 10.931C17.5282 11.1419 17.3868 11.3236 17.2019 11.4519C17.0169 11.5802 16.7971 11.649 16.572 11.649C16.3469 11.649 16.1272 11.5802 15.9422 11.4519C15.7572 11.3236 15.6159 11.1419 15.537 10.931L14.571 8.32101L11.961 7.35501C11.7498 7.27659 11.5675 7.13538 11.4389 6.95036C11.3102 6.76535 11.2412 6.54538 11.2412 6.32001C11.2412 6.09465 11.3102 5.87468 11.4389 5.68966C11.5675 5.50464 11.7498 5.36344 11.961 5.28501V5.28501ZM24.13 20.772L25.513 20.26L26.025 18.878C26.0668 18.7663 26.1416 18.6701 26.2395 18.6021C26.3375 18.5342 26.4538 18.4978 26.573 18.4978C26.6922 18.4978 26.8086 18.5342 26.9065 18.6021C27.0045 18.6701 27.0793 18.7663 27.121 18.878L27.633 20.26L29.015 20.772C29.1271 20.8133 29.2239 20.888 29.2922 20.986C29.3605 21.084 29.3972 21.2006 29.3972 21.32C29.3972 21.4395 29.3605 21.5561 29.2922 21.654C29.2239 21.752 29.1271 21.8267 29.015 21.868L27.633 22.38L27.121 23.762C27.0793 23.8737 27.0045 23.9699 26.9065 24.0379C26.8086 24.1058 26.6922 24.1423 26.573 24.1423C26.4538 24.1423 26.3375 24.1058 26.2395 24.0379C26.1416 23.9699 26.0668 23.8737 26.025 23.762L25.513 22.38L24.13 21.868C24.0184 21.8263 23.9221 21.7515 23.8542 21.6535C23.7862 21.5556 23.7498 21.4392 23.7498 21.32C23.7498 21.2008 23.7862 21.0844 23.8542 20.9865C23.9221 20.8886 24.0184 20.8137 24.13 20.772" fill="#FFAC33"/>
</svg>
