<svg width="64" height="64" viewBox="0 0 64 64" fill="none" xmlns="http://www.w3.org/2000/svg">
<path d="M61.7 24.3C61.6 23.3 61.4 22.4 61.2 21.7C60.8 20.3 60.5 19.4 60.2 18.8C59.9 18.1 59.6 17.7 59.3 17.3C58.8 16.5 58.3 16 57.8 15.6C56.9 14.8 56.1 14.2 55.3 13.7C53.7 12.8 52.1 12.2 50.6 11.6C47.5 10.6 44.4 10 41.4 9.5C35.3 8.5 29.2 8.1 23.1 7.6C21.6 7.5 20.1 7.3 18.6 7C18.2 6.9 20.6 6.1 21.8 5.7C27.8 4.1 33.9 3.1 40 2.5C33.9 2 27.8 1.8 21.7 2.2C14 2.8 12.2 5 12.5 8.6C12.6 9.5 12.8 9.7 12.9 10C13 10.2 13.1 10.4 13.2 10.5C13.4 10.7 13.5 10.8 13.6 11C14.5 11.8 15.2 12.2 16 12.6C16.8 13 17.5 13.3 18.3 13.6C19.8 14.2 21.3 14.6 22.9 15.1C29 16.9 35 18.6 40.9 20.9C43.9 22 46.8 23.3 49.7 24.9C50.8 25.5 30.1 39 24.1 39.7L24.8 59.2C30.9 57.1 37 54.8 43.1 51.3C44.6 50.4 46.2 49.5 47.7 48.4C49.2 47.3 50.7 46.2 52.2 45C53.7 43.7 55.2 42.4 56.8 40.6C57.6 39.6 58.4 38.7 59.3 37C59.8 36.1 60.3 35.2 60.9 32.9C61.2 31.8 61.5 30.1 61.6 27.8C61.9 26.5 61.8 25.4 61.7 24.3" fill="#8CC63E"/>
<path d="M50.5 27.6C47.6 25.3 44.4 23.6 41.1 22.1C37.8 20.6 34.5 19.4 31.1 18.2C27.7 17 24.4 16 21 14.8C19.3 14.2 17.6 13.6 16 12.8C15.2 12.4 14.4 11.9 13.6 11.2C13.2 10.8 12.9 10.4 12.7 9.90001C12.5 9.40001 12.4 8.80001 12.4 8.10001C12.4 8.70001 12.2 10.6 16.1 12.3C17.7 13 19.5 13.3 21.2 13.8C24.6 14.6 28 15.3 31.5 16.2C34.9 17 38.4 17.9 41.8 19C45.2 20.2 48.6 21.6 51.9 23.7L50.5 27.6" fill="#FFD93B"/>
<path d="M18 6.40001C19.9 5.70001 21.7 5.30001 23.5 4.80001C25.3 4.40001 27.2 4.00001 29 3.70001C32.7 3.10001 36.4 2.70001 40 2.60001C36.3 3.00001 32.7 3.70001 29 4.60001L23.6 6.10001C21.8 6.70001 20 7.30001 18.3 8.10001L18 6.40001Z" fill="#FFD93B"/>
<path d="M46 33.6L43.7 29.6C48.3 26.7 49.1 24.6 49.4 22.7C49.7 20.9 49.1 19.4 47.9 18.3L50.2 13.1C52.9 15.6 54.1999 19.6 53.5999 23.9C52.8999 28.8 49.9 32.6 46 33.6" fill="#8CC63E"/>
<path d="M22.9 9.4C17.5999 9 16.7 8.3 16.7 5H17.9C17.9 6.8 17.9 7.2 23 7.7L22.9 9.4Z" fill="#8CC63E"/>
<path d="M31.7 51.5L34.0999 50.9C34.8999 50.7 35.6 50.5 36.4 50.3C37.9 49.9 39.5 49.4 41 48.8C44 47.7 47.1 46.3 49.9 44.6C52.8 42.8 55.6 40.7 57.9 37.8C59 36.3 60.0999 34.6 60.7999 32.6C61.4999 30.6 61.8999 28.4 61.7999 26.1C62.0999 28.4 62 30.8 61.5 33C61 35.3 60.1 37.4 59 39.2C56.9 42.9 54.1999 45.9 51.2999 48.4C43.2999 56.4 32.2 56.7 32.2 56.7L31.7 51.5" fill="#FFD93B"/>
<path d="M2.10006 50.4C2.40006 49.2 3.60006 48.1 4.70006 48.4C5.80006 48.7 6.40006 50.2 6.10006 51.4C5.80006 52.6 4.80006 52.9 3.70006 52.7C2.60006 52.4 1.80006 51.7 2.10006 50.4" fill="#E8F94B"/>
<path d="M2.90001 50.7C3.10001 49.9 3.80001 49.3 4.50001 49.4C5.20001 49.6 5.50001 50.5 5.30001 51.3C5.10001 52.1 4.50001 52.3 3.80001 52.1C3.20001 51.9 2.70001 51.4 2.90001 50.7Z" fill="#252728"/>
<path d="M2 50.4C2.3 49.1 3.6 47.9 4.8 48.2C6 48.5 6.6 50.1 6.3 51.5C4.4 49.9 2 50.4 2 50.4Z" fill="#4B662B"/>
<path d="M3.09994 54.5C2.69994 44.7 16.0999 39.4 24.5999 39C32.9999 38.6 39.8999 38.8 40.3999 48.6C40.7999 58.4 33.9999 59.7 25.5999 60.8C16.7999 62.1 3.59994 64.4 3.09994 54.5" fill="#8CC63E"/>
<path d="M8.00005 55.2C7.70005 56.1 7.10005 56.9 6.80005 56.8C6.40005 56.7 6.40005 55.7 6.70005 54.8C7.00005 53.9 7.40005 53.4 7.80005 53.6C8.10005 53.6 8.30005 54.2 8.00005 55.2Z" fill="#4B662B"/>
<path d="M4.80002 54.3C4.80002 54.9 4.60002 55.5 4.30002 55.5C4.10002 55.5 3.90002 54.9 3.90002 54.2C3.90002 53.6 4.10002 53.2 4.40002 53.2C4.70002 53.2 4.80002 53.6 4.80002 54.3" fill="#4B662B"/>
<path d="M12.9 52.3C12.9 49.6 15 46.7 17.6 46.7C20.2 46.7 22.3 49.6 22.3 52.3C22.3 55 20.2 56.2 17.6 56.2C15 56.2 12.9 55 12.9 52.3" fill="#E8F94B"/>
<path d="M14.7 52.5C14.7 50.8 16 49 17.6 49C19.2 49 20.5 50.8 20.5 52.5C20.5 54.2 19.2 54.9 17.6 54.9C16 54.9 14.7 54.1 14.7 52.5" fill="#252728"/>
<path d="M12.6 52.4C12.6 49.5 14.8 46.4 17.6 46.4C20.4 46.4 22.6 49.5 22.6 52.4C17.6 50 12.6 52.4 12.6 52.4" fill="#4B662B"/>
<path d="M39.3 32.3C44.6 33.1 51.5 35.1 54.3 38.6C54.3 38.6 52.3 31.4 46.1 27.9C45.9 28.1 45.6001 28.3 45.4001 28.5C43.6001 29.6 41.5 30.9 39.3 32.3" fill="#4B662B"/>
<path d="M44 44.7C44 44.7 42.6 37.7 36.9 33.7C34.5 35.1 32.1 36.4 29.9 37.5C35.1 38.7 41.6 41.1 44 44.7Z" fill="#4B662B"/>
<path d="M47.4 26.6C51.6 26 57.6 26.4 60.3 27.6C60.3 27.6 56.5 22.7 49.4 22.2C49.4 22.2 49.1 24.7 47.4 26.6Z" fill="#4B662B"/>
<path d="M59.4001 17.3C58.9001 16.5 58.4001 16 57.9001 15.6C57.5001 15.3 57.2001 15 56.9001 14.7C51.5001 16.3 49.8 20.5 49.8 20.5C52.1 18.6 56.3 19 60.3 18.8V18.7C59.9 18.1 59.6001 17.6 59.4001 17.3Z" fill="#4B662B"/>
<path d="M22.3 12.1C22.9 10.5 24.9 9.00001 26.8 7.90001C25.7 7.80001 24.6 7.70001 23.4 7.60001C22.2 9.80001 22.3 12.1 22.3 12.1Z" fill="#4B662B"/>
<path d="M16.4 10.2C17.5 8.89999 20.3 7.99999 22.5 7.59999C21.7 7.49999 21 7.39999 20.2 7.29999C19.5 7.19999 19 6.99999 18.7 6.89999C16.9 8.39999 16.4 10.2 16.4 10.2Z" fill="#4B662B"/>
<path d="M47.7 10.8C45.4 14.8 45.2 18.7 45.2 18.7C46.4 16.2 49.3 14.1 52.5 12.3C51.9 12 51.1999 11.8 50.5999 11.6C49.5999 11.3 48.7 11.1 47.7 10.8" fill="#4B662B"/>
<path d="M33.4 14.6C34.1 12.5 36.8 10.6 39.3 9.2C37.9 9 36.5 8.8 35 8.7C33.2 11.4 33.4 14.6 33.4 14.6Z" fill="#4B662B"/>
<path d="M40.3 9.39999C39 12.9 39 16 39 16C39.9 13.9 42 11.8 44.4 10.1L41.4 9.49999C41 9.49999 40.7 9.39999 40.3 9.39999Z" fill="#4B662B"/>
<path d="M27.8999 13.8C28.5999 11.8 31.1999 9.90001 33.4999 8.50001C32.0999 8.40001 30.6999 8.20001 29.2999 8.10001C27.7999 10.8 27.8999 13.8 27.8999 13.8" fill="#4B662B"/>
<path d="M17.6 6.6C17.6 6.6 15.7 5.4 13.3 5.2C12.8 5.9 12.6 6.8 12.5 7.8C14.2 6.9 16.1 6.3 17.6 6.6" fill="#4B662B"/>
<path d="M18.9 5.6C18.9 5.6 18.7 4.2 18 2.7C17.3 2.8 16.7 3 16.2 3.2C17.4 3.9 18.4 4.7 18.9 5.6Z" fill="#4B662B"/>
<path d="M30.5 2.9V2H30.1C30.2 2.3 30.4 2.6 30.5 2.9Z" fill="#4B662B"/>
<path d="M25.7 3.90001C25.7 3.90001 25.7 3.10001 25.6 2.10001H24.6C25.1 2.70001 25.5 3.30001 25.7 3.90001" fill="#4B662B"/>
<path d="M34.9 2.6V2.2H34.7C34.8 2.3 34.9 2.5 34.9 2.6Z" fill="#4B662B"/>
<path d="M22.1 2.2H21.7C21.4 2.2 21.1 2.3 20.7 2.3C21.4 3 21.9999 3.8 22.2999 4.5C22.2999 4.5 22.3 3.5 22.1 2.2" fill="#4B662B"/>
<path d="M32.9 2.60001V2.10001H32.7C32.8 2.30001 32.9 2.40001 32.9 2.60001Z" fill="#4B662B"/>
<path d="M28.2 3.3C28.2 3.3 28.2 2.8 28.1 2H27.4C27.8 2.4 28.1 2.9 28.2 3.3Z" fill="#4B662B"/>
</svg>
