<svg width="20" height="20" viewBox="0 0 20 20" fill="none" xmlns="http://www.w3.org/2000/svg">
<path d="M4 0H16C17.0609 0 18.0783 0.421427 18.8284 1.17157C19.5786 1.92172 20 2.93913 20 4V16C20 17.0609 19.5786 18.0783 18.8284 18.8284C18.0783 19.5786 17.0609 20 16 20H4C2.93913 20 1.92172 19.5786 1.17157 18.8284C0.421427 18.0783 0 17.0609 0 16V4C0 2.93913 0.421427 1.92172 1.17157 1.17157C1.92172 0.421427 2.93913 0 4 0V0ZM4 2C3.46957 2 2.96086 2.21071 2.58579 2.58579C2.21071 2.96086 2 3.46957 2 4V16C2 16.5304 2.21071 17.0391 2.58579 17.4142C2.96086 17.7893 3.46957 18 4 18H16C16.5304 18 17.0391 17.7893 17.4142 17.4142C17.7893 17.0391 18 16.5304 18 16V4C18 3.46957 17.7893 2.96086 17.4142 2.58579C17.0391 2.21071 16.5304 2 16 2H4ZM15.658 10.057L16.365 10.764C16.5472 10.9526 16.648 11.2052 16.6457 11.4674C16.6434 11.7296 16.5382 11.9804 16.3528 12.1658C16.1674 12.3512 15.9166 12.4564 15.6544 12.4587C15.3922 12.461 15.1396 12.3602 14.951 12.178L14.244 11.471L13.537 12.178C13.3484 12.3602 13.0958 12.461 12.8336 12.4587C12.5714 12.4564 12.3206 12.3512 12.1352 12.1658C11.9498 11.9804 11.8446 11.7296 11.8423 11.4674C11.84 11.2052 11.9408 10.9526 12.123 10.764L12.83 10.057L12.123 9.35C11.9354 9.16249 11.8299 8.90812 11.8298 8.64285C11.8298 8.51151 11.8556 8.38143 11.9058 8.26007C11.956 8.1387 12.0297 8.02841 12.1225 7.9355C12.2153 7.84259 12.3256 7.76888 12.4469 7.71857C12.5682 7.66826 12.6983 7.64234 12.8296 7.6423C13.0949 7.6422 13.3494 7.74749 13.537 7.935L14.244 8.643L14.951 7.935C15.1386 7.74749 15.3931 7.6422 15.6584 7.6423C15.9236 7.64239 16.178 7.74786 16.3655 7.9355C16.553 8.12314 16.6583 8.37758 16.6582 8.64285C16.6581 8.90812 16.5526 9.16249 16.365 9.35L15.658 10.057V10.057ZM5.282 13.287C4.75157 13.287 4.24286 13.0763 3.86779 12.7012C3.49271 12.3261 3.282 11.8174 3.282 11.287V8.787C3.282 8.25657 3.49271 7.74786 3.86779 7.37279C4.24286 6.99771 4.75157 6.787 5.282 6.787H6.287L8.11 5.078C8.48086 4.73079 8.96997 4.53772 9.478 4.538H9.682C9.89212 4.538 10.1002 4.57939 10.2943 4.65979C10.4884 4.7402 10.6648 4.85806 10.8134 5.00663C10.9619 5.1552 11.0798 5.33159 11.1602 5.52571C11.2406 5.71983 11.282 5.92788 11.282 6.138V13.938C11.282 14.1481 11.2406 14.3562 11.1602 14.5503C11.0798 14.7444 10.9619 14.9208 10.8134 15.0694C10.6648 15.2179 10.4884 15.3358 10.2943 15.4162C10.1002 15.4966 9.89212 15.538 9.682 15.538H9.478C8.96969 15.5377 8.48056 15.3439 8.11 14.996L6.287 13.287H5.282V13.287ZM7.078 8.787H5.282V11.287H7.078L9.282 13.354V6.72L7.078 8.787V8.787Z" fill="#4CAF50"/>
</svg>
