<svg width="20" height="20" viewBox="0 0 20 20" fill="none" xmlns="http://www.w3.org/2000/svg">
<path d="M4 0H16C17.0609 0 18.0783 0.421427 18.8284 1.17157C19.5786 1.92172 20 2.93913 20 4V16C20 17.0609 19.5786 18.0783 18.8284 18.8284C18.0783 19.5786 17.0609 20 16 20H4C2.93913 20 1.92172 19.5786 1.17157 18.8284C0.421427 18.0783 0 17.0609 0 16V4C0 2.93913 0.421427 1.92172 1.17157 1.17157C1.92172 0.421427 2.93913 0 4 0V0ZM4 2C3.46957 2 2.96086 2.21071 2.58579 2.58579C2.21071 2.96086 2 3.46957 2 4V16C2 16.5304 2.21071 17.0391 2.58579 17.4142C2.96086 17.7893 3.46957 18 4 18H16C16.5304 18 17.0391 17.7893 17.4142 17.4142C17.7893 17.0391 18 16.5304 18 16V4C18 3.46957 17.7893 2.96086 17.4142 2.58579C17.0391 2.21071 16.5304 2 16 2H4ZM6.038 13.23C5.50757 13.23 4.99886 13.0193 4.62379 12.6442C4.24871 12.2691 4.038 11.7604 4.038 11.23V8.73C4.038 8.19957 4.24871 7.69086 4.62379 7.31579C4.99886 6.94071 5.50757 6.73 6.038 6.73H7.043L8.866 5.021C9.23661 4.67402 9.72531 4.48097 10.233 4.481H10.438C10.8623 4.481 11.2693 4.64957 11.5694 4.94963C11.8694 5.24969 12.038 5.65665 12.038 6.081V13.881C12.038 14.3053 11.8694 14.7123 11.5694 15.0124C11.2693 15.3124 10.8623 15.481 10.438 15.481H10.233C9.72504 15.4805 9.2363 15.2867 8.866 14.939L7.043 13.23H6.038ZM7.833 8.73H6.038V11.23H7.833L10.038 13.297V6.664L7.833 8.73ZM13.703 8.99C13.4378 8.99 13.1834 8.88464 12.9959 8.69711C12.8084 8.50957 12.703 8.25522 12.703 7.99C12.703 7.72478 12.8084 7.47043 12.9959 7.28289C13.1834 7.09536 13.4378 6.99 13.703 6.99C14.4986 6.99 15.2617 7.30607 15.8243 7.86868C16.3869 8.43129 16.703 9.19435 16.703 9.99C16.703 10.7856 16.3869 11.5487 15.8243 12.1113C15.2617 12.6739 14.4986 12.99 13.703 12.99C13.4378 12.99 13.1834 12.8846 12.9959 12.6971C12.8084 12.5096 12.703 12.2552 12.703 11.99C12.703 11.7248 12.8084 11.4704 12.9959 11.2829C13.1834 11.0954 13.4378 10.99 13.703 10.99C13.9682 10.99 14.2226 10.8846 14.4101 10.6971C14.5976 10.5096 14.703 10.2552 14.703 9.99C14.703 9.72478 14.5976 9.47043 14.4101 9.28289C14.2226 9.09536 13.9682 8.99 13.703 8.99Z" fill="#4CAF50"/>
</svg>
